<svg xmlns="http://www.w3.org/2000/svg" viewBox="0 0 128 128">
  <rect width="128" height="128" rx="24" fill="#16213c"/>
  <circle cx="100" cy="26" r="10" fill="#faf0c8"/>
  <circle cx="104" cy="23" r="8.5" fill="#16213c"/>
  <circle cx="30" cy="22" r="2" fill="#fff4c8"/>
  <circle cx="56" cy="16" r="1.5" fill="#fff4c8"/>
  <circle cx="76" cy="30" r="1.5" fill="#fff4c8"/>
  <circle cx="64" cy="74" r="16" fill="rgba(255,200,90,0.25)"/>
  <path d="M64 56 Q72 70 64 80 Q56 70 64 56" fill="#f0a030"/>
  <ellipse cx="64" cy="72" rx="3" ry="6" fill="#ffe9a0"/>
  <ellipse cx="64" cy="90" rx="26" ry="12" fill="#d8a05a"/>
  <path d="M38 90 Q64 104 90 90 L86 100 Q64 112 42 100 Z" fill="#b4824a"/>
  <circle cx="34" cy="104" r="10" fill="#7a9cd8"/>
  <circle cx="31" cy="102" r="1.7" fill="#2c2416"/>
  <circle cx="37" cy="102" r="1.7" fill="#2c2416"/>
  <path d="M32 106 q2 2 4 0" fill="none" stroke="#2c3450" stroke-width="1.5"/>
  <circle cx="94" cy="104" r="10" fill="#e8c060"/>
  <circle cx="91" cy="102" r="1.7" fill="#2c2416"/>
  <circle cx="97" cy="102" r="1.7" fill="#2c2416"/>
  <path d="M92 106 q2 2 4 0" fill="none" stroke="#4a3420" stroke-width="1.5"/>
</svg>
